<svg width="358" height="129" viewBox="0 0 358 129" fill="none" xmlns="http://www.w3.org/2000/svg">
<path d="M1.5 1.5C19.2562 1.5 19.2562 19.5 37.0125 19.5C54.7687 19.5 54.7687 1.5 72.525 1.5C90.2812 1.5 90.2812 19.5 107.996 19.5C125.753 19.5 125.753 1.5 143.467 1.5C161.223 1.5 161.223 19.5 178.938 19.5C196.694 19.5 196.694 1.5 214.449 1.5C232.206 1.5 232.206 19.5 249.963 19.5C267.718 19.5 267.718 1.5 285.475 1.5C303.231 1.5 303.231 19.5 320.988 19.5C338.743 19.5 338.743 1.5 356.5 1.5" stroke="#4F4F4F" stroke-width="3" stroke-miterlimit="10" stroke-linecap="round"/>
<path d="M1.5 55.5C19.2562 55.5 19.2562 73.5 37.0125 73.5C54.7687 73.5 54.7687 55.5 72.525 55.5C90.2812 55.5 90.2812 73.5 107.996 73.5C125.753 73.5 125.753 55.5 143.467 55.5C161.223 55.5 161.223 73.5 178.938 73.5C196.694 73.5 196.694 55.5 214.449 55.5C232.206 55.5 232.206 73.5 249.963 73.5C267.718 73.5 267.718 55.5 285.475 55.5C303.231 55.5 303.231 73.5 320.988 73.5C338.743 73.5 338.743 55.5 356.5 55.5" stroke="#4F4F4F" stroke-width="3" stroke-miterlimit="10" stroke-linecap="round"/>
<path d="M1.5 109.5C19.2562 109.5 19.2562 127.5 37.0125 127.5C54.7687 127.5 54.7687 109.5 72.525 109.5C90.2812 109.5 90.2812 127.5 107.996 127.5C125.753 127.5 125.753 109.5 143.467 109.5C161.223 109.5 161.223 127.5 178.938 127.5C196.694 127.5 196.694 109.5 214.449 109.5C232.206 109.5 232.206 127.5 249.963 127.5C267.718 127.5 267.718 109.5 285.475 109.5C303.231 109.5 303.231 127.5 320.988 127.5C338.743 127.5 338.743 109.5 356.5 109.5" stroke="#4F4F4F" stroke-width="3" stroke-miterlimit="10" stroke-linecap="round"/>
</svg>
