<svg width="137" height="288" viewBox="0 0 137 288" fill="none" xmlns="http://www.w3.org/2000/svg">
<path d="M86.9094 1.67651C39.8363 1.67651 1.67651 15.8857 1.67651 33.4137C1.67651 50.9416 39.8363 65.1509 86.9094 65.1509C113.29 65.1509 134.677 59.136 134.677 51.7161C134.677 44.2963 113.29 38.2814 86.9094 38.2814C39.8363 38.2814 1.67651 52.4906 1.67651 70.0185C1.67651 87.5466 39.8363 101.756 86.9094 101.756C113.29 101.756 134.677 95.741 134.677 88.321C134.677 80.9012 113.29 74.8862 86.9094 74.8862C39.8363 74.8862 1.67651 89.1827 1.67651 106.818C1.67651 124.453 39.8363 138.75 86.9094 138.75C113.29 138.75 134.677 132.735 134.677 125.315C134.677 117.895 113.29 111.881 86.9094 111.881C39.8363 111.881 1.67651 126.09 1.67651 143.618C1.67651 161.146 39.8363 175.354 86.9094 175.354C113.29 175.354 134.677 169.34 134.677 161.92C134.677 154.5 113.29 148.485 86.9094 148.485C39.8363 148.485 1.67651 162.695 1.67651 180.223C1.67651 197.751 39.8363 211.96 86.9094 211.96C113.29 211.96 134.677 205.944 134.677 198.525C134.677 191.105 113.29 185.09 86.9094 185.09C39.8363 185.09 1.67651 199.3 1.67651 216.827C1.67651 234.355 39.8363 248.565 86.9094 248.565C113.29 248.565 134.677 242.55 134.677 235.13C134.677 227.711 113.29 221.695 86.9094 221.695C39.8363 221.695 1.67651 235.991 1.67651 253.627C1.67651 271.262 39.8363 285.559 86.9094 285.559" stroke="#4F4F4F" stroke-width="3.35294" stroke-linecap="round"/>
</svg>
