<svg width="358" height="71" viewBox="0 0 358 71" fill="none" xmlns="http://www.w3.org/2000/svg">
<path d="M1.5 1.5C19.2562 1.5 19.2562 19.5 37.0125 19.5C54.7687 19.5 54.7687 1.5 72.525 1.5C90.2812 1.5 90.2812 19.5 107.996 19.5C125.753 19.5 125.753 1.5 143.467 1.5C161.223 1.5 161.223 19.5 178.938 19.5C196.694 19.5 196.694 1.5 214.449 1.5C232.206 1.5 232.206 19.5 249.963 19.5C267.718 19.5 267.718 1.5 285.475 1.5C303.231 1.5 303.231 19.5 320.988 19.5C338.743 19.5 338.743 1.5 356.5 1.5" stroke="#4F4F4F" stroke-width="3" stroke-miterlimit="10" stroke-linecap="round"/>
<path d="M1.5 51.5C19.2562 51.5 19.2562 69.5 37.0125 69.5C54.7687 69.5 54.7687 51.5 72.525 51.5C90.2812 51.5 90.2812 69.5 107.996 69.5C125.753 69.5 125.753 51.5 143.467 51.5C161.223 51.5 161.223 69.5 178.938 69.5C196.694 69.5 196.694 51.5 214.449 51.5C232.206 51.5 232.206 69.5 249.963 69.5C267.718 69.5 267.718 51.5 285.475 51.5C303.231 51.5 303.231 69.5 320.988 69.5C338.743 69.5 338.743 51.5 356.5 51.5" stroke="#4F4F4F" stroke-width="3" stroke-miterlimit="10" stroke-linecap="round"/>
</svg>
