<svg width="36" height="36" viewBox="0 0 36 36" fill="none" xmlns="http://www.w3.org/2000/svg">
<circle cx="18" cy="18" r="18" fill="white" fill-opacity="0.35"/>
<path d="M24 14H25C26.0609 14 27.0783 14.4214 27.8284 15.1716C28.5786 15.9217 29 16.9391 29 18C29 19.0609 28.5786 20.0783 27.8284 20.8284C27.0783 21.5786 26.0609 22 25 22H24" stroke="#352F31" stroke-width="2" stroke-linecap="round" stroke-linejoin="round"/>
<path d="M8 14H24V23C24 24.0609 23.5786 25.0783 22.8284 25.8284C22.0783 26.5786 21.0609 27 20 27H12C10.9391 27 9.92172 26.5786 9.17157 25.8284C8.42143 25.0783 8 24.0609 8 23V14Z" stroke="#352F31" stroke-width="2" stroke-linecap="round" stroke-linejoin="round"/>
<path d="M12 7V10" stroke="#352F31" stroke-width="2" stroke-linecap="round" stroke-linejoin="round"/>
<path d="M16 7V10" stroke="#352F31" stroke-width="2" stroke-linecap="round" stroke-linejoin="round"/>
<path d="M20 7V10" stroke="#352F31" stroke-width="2" stroke-linecap="round" stroke-linejoin="round"/>
</svg>
