<svg width="102" height="102" viewBox="0 0 102 102" fill="none" xmlns="http://www.w3.org/2000/svg">
<path d="M76.7751 11.2813C76.2952 11.0657 75.9566 10.9754 75.7593 11.0104C75.5557 11.0471 75.3186 11.2973 75.048 11.7612L71.8604 17.2257C71.6061 17.6616 71.5065 17.984 71.5615 18.193C71.6141 18.4059 71.8591 18.6614 72.2963 18.9593L72.1633 19.1872L68.6903 17.1613L68.8232 16.9333C69.2891 17.1729 69.6362 17.2762 69.8644 17.2432C70.0887 17.2079 70.3198 16.9863 70.5577 16.5784L74.0008 10.676C74.0801 10.54 74.1211 10.4192 74.1238 10.3136C74.1201 10.2096 74.0461 10.1022 73.9018 9.99118C73.8169 9.92553 73.7256 9.86155 73.6279 9.79923C73.5263 9.73459 73.3355 9.62062 73.0556 9.45733C71.9639 8.8205 71.1736 8.48009 70.6847 8.4361C70.1958 8.39212 69.5557 8.63505 68.7642 9.16491L68.4523 8.98296L70.2943 7.20344L76.9045 11.0594L76.7751 11.2813Z" fill="#333333"/>
<path d="M66.2681 9.0781C66.0044 9.96084 65.5023 10.6226 64.7619 11.0633C64.0156 11.5072 63.2012 11.5973 62.3184 11.3336C61.4401 11.0712 60.7988 10.5656 60.3944 9.81666C59.9899 9.06773 59.9309 8.21419 60.2171 7.25604C60.4808 6.3733 60.9895 5.68937 61.7432 5.20426C62.4969 4.71915 63.3173 4.6091 64.2045 4.87412C65.0562 5.12854 65.6836 5.6566 66.0867 6.45829C66.4899 7.25999 66.5503 8.13326 66.2681 9.0781ZM62.624 10.99C62.9744 11.0947 63.3127 11.0701 63.6389 10.9163C64.2031 10.6452 64.6329 10.015 64.9284 9.0258C65.1643 8.23621 65.2068 7.44685 65.056 6.65772C64.9008 5.86726 64.506 5.37728 63.8716 5.1878C63.3748 5.03939 62.9251 5.15387 62.5225 5.53126C62.1154 5.90733 61.8012 6.46576 61.5799 7.20655C61.3507 7.97396 61.3055 8.74802 61.4443 9.52874C61.5831 10.3095 61.9763 10.7966 62.624 10.99Z" fill="#333333"/>
<path d="M57.4337 3.76818C57.0062 3.76358 56.7179 3.80982 56.5689 3.90689C56.4194 4.00856 56.3266 4.2437 56.2906 4.6123L55.9857 7.72934C55.9411 8.18549 55.9531 8.51461 56.0218 8.71669C56.0853 8.92292 56.23 9.03708 56.4558 9.05916C56.5018 9.06367 56.5647 9.06284 56.6444 9.05667C56.719 9.05467 56.7987 9.04851 56.8834 9.03819L56.8611 9.26626C56.5895 9.33273 56.3107 9.40083 56.0248 9.47055C55.7389 9.54028 55.5409 9.59069 55.4309 9.62179C55.1919 9.68681 54.9449 9.76267 54.6899 9.84937C54.6577 9.84621 54.6404 9.83289 54.638 9.8094C54.6311 9.78547 54.6312 9.73664 54.6384 9.66291L54.7492 8.52945C54.4142 8.91068 54.0996 9.2032 53.8052 9.407C53.5062 9.61034 53.2093 9.69759 52.9144 9.66876C52.6794 9.64578 52.4952 9.55566 52.3617 9.39841C52.2278 9.24576 52.1712 9.06346 52.1919 8.85151C52.2104 8.6626 52.2835 8.50927 52.4113 8.39152C52.5345 8.27333 52.6813 8.22256 52.8518 8.23923C53.0269 8.25636 53.1964 8.35434 53.3603 8.53317C53.5197 8.71156 53.65 8.80571 53.7514 8.81563C53.9126 8.8314 54.1236 8.71946 54.3843 8.4798C54.6445 8.24476 54.7881 7.98901 54.8152 7.71255L55.12 4.59552C55.1587 4.19926 55.0936 3.9138 54.9246 3.73911C54.7552 3.56904 54.4558 3.46766 54.0264 3.43497L54.0487 3.20689L57.456 3.5401L57.4337 3.76818Z" fill="#333333"/>
<path d="M46.9028 9.76538C46.2526 9.82333 45.663 9.64813 45.1339 9.23979C44.6052 8.83606 44.3041 8.22149 44.2305 7.39607L48.6228 7.00459C48.4813 5.93888 48.1698 5.18115 47.6881 4.7314C47.2065 4.28165 46.666 4.08349 46.0665 4.13692C45.5823 4.18007 45.1855 4.34326 44.8761 4.62647C44.5667 4.90968 44.2921 5.29669 44.0523 5.7875L43.8028 5.72608C43.9397 5.12359 44.2465 4.55012 44.7232 4.00566C45.1952 3.46161 45.8071 3.15609 46.5587 3.08909C47.4257 3.01183 48.1258 3.27943 48.6591 3.8919C49.1878 4.50478 49.4902 5.23777 49.5662 6.09085C49.6488 7.01772 49.4458 7.84224 48.957 8.56439C48.4683 9.28655 47.7835 9.68688 46.9028 9.76538ZM47.259 9.22469C47.7847 9.17783 48.1651 8.90921 48.4003 8.41881C48.5256 8.15664 48.6037 7.83362 48.6346 7.44974L45.7156 7.7099C45.8075 8.16651 45.9257 8.50224 46.0703 8.7171C46.3325 9.10276 46.7287 9.27195 47.259 9.22469Z" fill="#333333"/>
<path d="M39.576 4.24243C39.2473 4.39537 39.0412 4.53362 38.9578 4.65719C38.8291 4.84629 38.833 5.13029 38.9696 5.5092L40.1871 8.88671C40.3033 9.209 40.423 9.40453 40.5462 9.4733C40.665 9.54365 40.8224 9.5435 41.0184 9.47285C41.1099 9.43988 41.178 9.41041 41.2228 9.38443C41.2632 9.36002 41.31 9.32594 41.3631 9.28218L41.4455 9.51083L41.0316 9.83717C40.8822 9.95502 40.6404 10.1578 40.3061 10.4456C39.9719 10.7334 39.7939 10.8813 39.7721 10.8891C39.7503 10.897 39.7333 10.8908 39.7211 10.8706C39.7089 10.8504 39.6918 10.8098 39.6698 10.7488L39.3519 9.86687C39.0621 10.4143 38.787 10.8185 38.5268 11.0796C38.2682 11.3451 37.9734 11.5375 37.6424 11.6568C37.1938 11.8185 36.7817 11.7948 36.4061 11.5857C36.2071 11.4704 36.0108 11.2877 35.8173 11.0376C35.6128 11.4804 35.419 11.8234 35.236 12.0665C34.9196 12.4857 34.5458 12.773 34.1146 12.9284C33.4134 13.1812 32.8424 13.0647 32.4015 12.5789C32.1504 12.3053 31.8992 11.82 31.648 11.1232L30.6707 8.41205C30.5593 8.10282 30.4156 7.91593 30.2398 7.85136C30.0612 7.79271 29.787 7.81033 29.4173 7.90422L29.3561 7.73437L32.3024 6.67233L32.3684 6.85525C32.002 7.02667 31.7812 7.19238 31.706 7.35236C31.6265 7.5139 31.6518 7.77542 31.7822 8.13691L32.7971 10.9526C32.9494 11.375 33.1073 11.67 33.271 11.8373C33.5609 12.1364 33.941 12.2011 34.4114 12.0316C34.6945 11.9295 34.9416 11.7346 35.1529 11.4469C35.2748 11.2799 35.4101 11.0343 35.559 10.71L34.3533 7.36513C34.2261 7.01235 34.0686 6.76648 33.8807 6.62752C33.6885 6.49012 33.3897 6.48711 32.9843 6.61847L32.9231 6.44862L35.9217 5.36774L35.9829 5.5376C35.588 5.739 35.3606 5.93415 35.3007 6.12305C35.2409 6.31195 35.3153 6.69602 35.5241 7.27527L36.1835 9.10448C36.4253 9.77519 36.6352 10.2212 36.8134 10.4424C37.1109 10.8174 37.4927 10.9209 37.9588 10.7529C38.2244 10.6571 38.4591 10.4889 38.6626 10.2482C38.8678 10.0119 39.026 9.74077 39.1372 9.43494L37.8491 5.86144C37.7298 5.53044 37.5907 5.3222 37.432 5.23671C37.2689 5.1528 36.9927 5.17852 36.6035 5.31389L36.5423 5.14403L39.5148 4.07258L39.576 4.24243Z" fill="#333333"/>
<path d="M25.8559 20.9857C25.987 21.1355 26.0475 21.3101 26.0375 21.5096C26.0274 21.7091 25.9458 21.8759 25.7924 22.01C25.6426 22.141 25.4682 22.1983 25.2692 22.1817C25.0697 22.1717 24.9029 22.09 24.7688 21.9367C24.6377 21.7869 24.5789 21.6107 24.5925 21.4082C24.6055 21.2122 24.687 21.0487 24.8368 20.9176C24.9902 20.7835 25.1648 20.723 25.3608 20.7361C25.5598 20.7526 25.7249 20.8358 25.8559 20.9857ZM20.7502 13.7991C20.4078 14.1601 20.2275 14.4286 20.2092 14.6045C20.1939 14.7839 20.3646 15.0775 20.7212 15.4852L22.9022 17.9783C23.1003 18.2048 23.2532 18.3479 23.3607 18.4076C23.538 18.5047 23.7102 18.4801 23.8775 18.3338C23.9158 18.3003 23.9511 18.2633 23.9833 18.2228C24.0121 18.1853 24.0922 18.066 24.2238 17.8648L24.3655 18.0268L24.2048 18.2966C23.7687 19.0287 23.4747 19.5504 23.3227 19.8617C23.2617 19.9889 23.2173 20.0647 23.1894 20.0891C23.1611 20.0708 23.1347 20.0477 23.1104 20.0198L19.8275 16.267C19.48 15.8698 19.215 15.6618 19.0325 15.6431C18.8465 15.6274 18.5724 15.7534 18.21 16.0212L18.082 15.8749L20.6221 13.6527L20.7502 13.7991Z" fill="#333333"/>
<path d="M14.9876 21.0274C14.6657 20.9277 14.3699 20.922 14.1003 21.0105C13.8314 21.1055 13.5969 21.2804 13.3968 21.5353C13.088 21.9285 13.0197 22.4165 13.192 22.9991C13.3651 23.5883 13.8011 24.1574 14.5002 24.7064C15.1702 25.2325 15.7852 25.48 16.3453 25.4489C16.9025 25.4214 17.3312 25.2166 17.6314 24.8342C17.843 24.5648 17.9523 24.2533 17.9592 23.8996C17.9698 23.5489 17.895 23.3106 17.7348 23.1848L14.9876 21.0274ZM13.0909 16.7301C12.844 17.0896 12.7467 17.3634 12.799 17.5516C12.8484 17.7435 13.0061 17.9438 13.2719 18.1525L18.515 22.2699C18.7917 22.4872 18.9955 22.5913 19.1263 22.5822C19.2578 22.5796 19.3965 22.4854 19.5423 22.2997C19.5738 22.2596 19.602 22.22 19.6269 22.1807C19.649 22.1451 19.6804 22.0902 19.7209 22.0161L19.9011 22.1576L19.663 22.8094C19.6523 22.8305 19.4906 23.2951 19.1778 24.2032C19.1635 24.2214 19.1444 24.227 19.1204 24.2199C19.0973 24.2194 19.0748 24.2106 19.053 24.1934L18.3156 23.6144C18.3672 24.0435 18.3798 24.3947 18.3534 24.6683C18.2999 25.1561 18.1374 25.573 17.8658 25.9189C17.4712 26.4213 16.9175 26.6841 16.2048 26.7072C15.4929 26.7367 14.7655 26.4599 14.0227 25.8766C13.2945 25.3047 12.8052 24.5673 12.5549 23.6643C12.3016 22.7649 12.4338 21.9858 12.9513 21.3267C13.1114 21.1228 13.2756 20.9662 13.4438 20.857C13.7032 20.684 14.0121 20.5793 14.3704 20.5428L12.5845 19.1403C12.2167 18.8515 11.9438 18.7343 11.7657 18.7887C11.5876 18.8431 11.3253 19.0609 10.9788 19.4422L10.7876 19.2921L12.9107 16.5886L13.0909 16.7301Z" fill="#333333"/>
<path d="M10.936 28.4699L10.8343 28.6752C10.3141 28.5363 9.88739 28.485 9.55418 28.5214C8.9457 28.5816 8.50271 28.8917 8.22521 29.4517C8.07105 29.7628 8.03481 30.0497 8.1165 30.3123C8.20029 30.5812 8.37907 30.7834 8.65285 30.9191C8.82708 31.0054 9.02078 31.0368 9.23395 31.0133C9.44712 30.9897 9.69519 30.8853 9.97817 30.7L10.7217 30.2005C11.2483 29.8259 11.7102 29.5872 12.1074 29.4843C12.5045 29.3814 12.8918 29.4235 13.2693 29.6105C13.7339 29.8408 14.0333 30.1958 14.1676 30.6757C14.3018 31.1555 14.2446 31.6464 13.9959 32.1483C13.8869 32.3682 13.7262 32.5882 13.5137 32.8085C13.2992 33.0328 13.1838 33.1616 13.1673 33.1948C13.1303 33.2695 13.114 33.3285 13.1183 33.372C13.1226 33.4155 13.1413 33.461 13.1746 33.5085L13.1006 33.6578L11.343 32.8411L11.4386 32.6482C11.8821 32.7646 12.2508 32.8078 12.5447 32.7778C13.0869 32.7262 13.4783 32.4577 13.7188 31.9723C13.8627 31.6819 13.8866 31.4096 13.7904 31.1553C13.6943 30.901 13.5259 30.7142 13.2853 30.595C12.9037 30.4059 12.4217 30.5235 11.8393 30.948L10.9906 31.5504C10.0715 32.1956 9.29262 32.3599 8.65379 32.0433C8.1643 31.8008 7.85547 31.4178 7.72729 30.8945C7.59706 30.3753 7.67891 29.8191 7.97285 29.2259C8.09618 28.977 8.27743 28.7154 8.51661 28.4413C8.7558 28.1671 8.88978 28.001 8.91855 27.9429C8.94322 27.8932 8.94614 27.8404 8.9273 27.7845C8.91262 27.7307 8.88552 27.6812 8.84602 27.6357L8.92619 27.474L10.936 28.4699Z" fill="#333333"/>
<path d="M11.1416 38.9353L6.84028 37.8169C6.5356 37.7376 6.28034 37.7167 6.0745 37.7541C5.69087 37.8313 5.44138 38.0917 5.32604 38.5353C5.24681 38.84 5.27015 39.1641 5.39604 39.5078C5.46495 39.7027 5.57584 39.9109 5.72871 40.1325L9.41174 41.0902C9.75674 41.1799 10.0005 41.1715 10.143 41.065C10.2855 40.9586 10.4203 40.7066 10.5476 40.3092L10.7694 40.3669L10.2049 42.5377L5.47342 41.3074C5.16874 41.2282 4.94417 41.2272 4.79971 41.3044C4.65857 41.3873 4.5487 41.6075 4.4701 41.9649L4.28192 41.916C4.27879 41.6521 4.27445 41.4572 4.2689 41.3314C4.26782 41.2068 4.25802 40.9961 4.23948 40.6995C4.22944 40.5725 4.19952 40.2921 4.14971 39.8582C4.15553 39.8358 4.17023 39.8253 4.1938 39.8266C4.21289 39.8268 4.23587 39.8304 4.26275 39.8374L5.34481 40.1187C5.06111 39.7197 4.86451 39.372 4.75502 39.0756C4.58521 38.6249 4.55565 38.1867 4.66634 37.761C4.7677 37.3712 5.00213 37.0399 5.36964 36.7672C5.73383 36.4887 6.23853 36.4334 6.88373 36.6012L10.3719 37.5082C10.7303 37.6014 10.9898 37.5876 11.1504 37.4667C11.2522 37.3879 11.3607 37.1913 11.476 36.8769L11.6642 36.9258L11.1416 38.9353Z" fill="#333333"/>
<path d="M3.18219 45.6088C3.21788 45.9696 3.28026 46.2098 3.36931 46.3293C3.50525 46.5133 3.77459 46.6034 4.17735 46.5997L7.76743 46.5671C8.11001 46.564 8.33411 46.5156 8.43974 46.4221C8.54542 46.3331 8.59731 46.1845 8.59541 45.9762C8.59453 45.879 8.58922 45.8049 8.5795 45.7541C8.56982 45.7079 8.55311 45.6525 8.52938 45.5879L8.77242 45.5857L8.94363 46.0841C9.00545 46.2641 9.11694 46.5594 9.27809 46.97C9.43923 47.3806 9.51991 47.5975 9.52012 47.6206C9.52033 47.6438 9.50889 47.6577 9.48578 47.6626C9.46268 47.6674 9.41872 47.6701 9.35391 47.6707L8.41646 47.6793C8.83727 48.1338 9.1279 48.527 9.28833 48.8589C9.45339 49.1907 9.53752 49.5325 9.54072 49.8844C9.54506 50.3612 9.38649 50.7423 9.065 51.0276C8.89043 51.1774 8.65314 51.3022 8.35311 51.4022C8.70343 51.7416 8.96308 52.0378 9.13206 52.2909C9.42308 52.7281 9.57068 53.1759 9.57485 53.6342C9.58163 54.3795 9.28293 54.8799 8.67876 55.1354C8.33749 55.282 7.79651 55.3587 7.05581 55.3655L4.17402 55.3917C3.84533 55.3947 3.62146 55.4685 3.5024 55.6131C3.38802 55.7623 3.31403 56.0269 3.28045 56.4068L3.09991 56.4084L3.07141 53.2767L3.26584 53.2749C3.30654 53.6773 3.38996 53.9405 3.51609 54.0643C3.64226 54.1928 3.89747 54.2553 4.28171 54.2518L7.2746 54.2246C7.72365 54.2205 8.05421 54.1689 8.26627 54.0697C8.64432 53.895 8.83107 53.5576 8.82652 53.0576C8.82379 52.7567 8.72154 52.459 8.51978 52.1646C8.40248 51.9943 8.21539 51.7854 7.9585 51.5377L4.40314 51.5701C4.02816 51.5735 3.74404 51.6409 3.55079 51.7723C3.35758 51.9083 3.25596 52.1893 3.24595 52.6153L3.06541 52.617L3.0364 49.4297L3.21695 49.428C3.2765 49.8673 3.38553 50.1464 3.54402 50.2653C3.70251 50.3843 4.08962 50.4409 4.70532 50.4353L6.64966 50.4176C7.36259 50.4111 7.85288 50.3604 8.12054 50.2654C8.57283 50.1085 8.79672 49.7823 8.79221 49.287C8.78964 49.0046 8.70841 48.7276 8.54853 48.4559C8.39328 48.1841 8.18971 47.9452 7.93782 47.7392L4.13942 47.7737C3.78759 47.7769 3.54509 47.8393 3.41194 47.9609C3.27882 48.0871 3.21182 48.3563 3.21094 48.7683L3.0304 48.77L3.00165 45.6104L3.18219 45.6088Z" fill="#333333"/>
<path d="M12.9933 66.8691C13.1292 67.1785 13.1862 67.4923 13.1641 67.8104C13.1496 68.0191 13.0984 68.2363 13.0105 68.462L15.0322 67.5737C15.2908 67.4601 15.4558 67.3522 15.5272 67.25C15.6005 67.1521 15.5896 66.995 15.4946 66.7789C15.4723 66.728 15.4506 66.6844 15.4296 66.6482C15.4086 66.6119 15.3629 66.5308 15.2924 66.405L15.5023 66.3128L15.8648 66.7755C15.9995 66.9439 16.1363 67.1113 16.2752 67.2779C16.4141 67.4444 16.5406 67.5885 16.6548 67.7103C16.7058 67.7688 16.7954 67.8634 16.9237 67.9942L16.9277 68.0379L16.2546 68.3185C16.0111 68.4204 15.7592 68.5261 15.4988 68.6354C15.2426 68.7429 14.9895 68.8516 14.7394 68.9615L9.53953 71.231C9.26403 71.352 9.08608 71.4707 9.00567 71.5869C8.92527 71.7032 8.94932 71.9075 9.07781 72.2C9.0983 72.2466 9.11879 72.2932 9.13927 72.3398C9.16399 72.3846 9.19084 72.4284 9.2198 72.4713L9.00999 72.5635C8.99034 72.5418 8.74937 72.2811 8.28706 71.7813L7.47338 70.948L7.51105 70.8783L8.29305 70.5347C7.93021 70.411 7.65552 70.2864 7.46896 70.161C7.14228 69.9354 6.88956 69.6192 6.71078 69.2123C6.39419 68.4918 6.41481 67.7849 6.77265 67.0916C7.13659 66.4008 7.68519 65.8942 8.41845 65.5721C9.3382 65.1679 10.2439 65.0886 11.1355 65.334C12.0332 65.5817 12.6525 66.0935 12.9933 66.8691ZM7.65441 69.4955C7.79967 69.8261 8.01448 70.0503 8.29884 70.1681C8.5832 70.2859 8.81227 70.3066 8.98604 70.2302L11.7135 69.0318C12.2645 68.7898 12.5872 68.471 12.6814 68.0756C12.7818 67.6826 12.7706 67.3462 12.6476 67.0665C12.413 66.5324 11.9931 66.2213 11.3881 66.1332C10.7872 66.0432 10.1414 66.15 9.4505 66.4536C8.7681 66.7534 8.22879 67.1775 7.83255 67.7258C7.43817 68.2783 7.37879 68.8682 7.65441 69.4955Z" fill="#333333"/>
<path d="M12.9462 74.1702C13.6893 73.6256 14.489 73.401 15.3454 73.4966C16.2083 73.5931 16.9121 74.0129 17.4567 74.756C17.9986 75.4953 18.2047 76.2856 18.0751 77.1268C17.9454 77.968 17.4773 78.6842 16.6708 79.2753C15.9277 79.8199 15.1093 80.0582 14.2156 79.99C13.3218 79.9218 12.6013 79.5143 12.0539 78.7675C11.5285 78.0506 11.347 77.2509 11.5095 76.3684C11.672 75.4858 12.1509 74.7531 12.9462 74.1702ZM17.0057 74.8455C16.7895 74.5505 16.5049 74.3658 16.152 74.2916C15.5385 74.1672 14.8155 74.4102 13.9828 75.0205C13.3181 75.5077 12.8077 76.1113 12.4517 76.8315C12.0983 77.5554 12.1173 78.1844 12.5087 78.7184C12.8152 79.1366 13.2429 79.3167 13.7917 79.2589C14.3432 79.2048 14.9308 78.9492 15.5544 78.4921C16.2003 78.0187 16.7036 77.4288 17.0642 76.7226C17.4248 76.0163 17.4052 75.3906 17.0057 74.8455Z" fill="#333333"/>
<path d="M16.932 83.9031C17.275 84.1667 17.5465 84.3034 17.7466 84.3131C17.9499 84.3194 18.1828 84.1822 18.4452 83.9015L23.0795 78.9462C23.2882 78.7231 23.4135 78.5518 23.4553 78.4325C23.5205 78.2272 23.45 78.0282 23.2437 77.8353C23.1964 77.791 23.1392 77.747 23.0722 77.7034C23.0087 77.663 22.9251 77.6134 22.8216 77.5546L22.9781 77.3872C23.5484 77.6924 24.2497 78.044 25.0819 78.4419C25.1056 78.464 25.1096 78.4868 25.094 78.5103C25.0818 78.5369 25.0441 78.584 24.9808 78.6516L19.2936 84.7329C19.0185 85.0271 18.8905 85.2656 18.9097 85.4484C18.9321 85.6278 19.0912 85.8779 19.3869 86.1988L19.2541 86.3409L16.7992 84.0451L16.932 83.9031Z" fill="#333333"/>
<path d="M24.1188 86.2403C24.6125 85.4625 25.2756 84.9621 26.108 84.7392C26.9467 84.5149 27.755 84.6496 28.5329 85.1433C29.3068 85.6345 29.7866 86.2954 29.9722 87.1261C30.1578 87.9567 29.9827 88.7942 29.4468 89.6385C28.9531 90.4163 28.2776 90.9362 27.4204 91.1982C26.5632 91.4602 25.7438 91.3431 24.962 90.8469C24.2116 90.3706 23.7513 89.6919 23.5813 88.8108C23.4112 87.9297 23.5904 87.0729 24.1188 86.2403ZM28.1454 85.3909C27.8366 85.1949 27.5044 85.1266 27.1487 85.1859C26.532 85.2935 25.9471 85.7831 25.3938 86.6548C24.9522 87.3505 24.6968 88.0986 24.6274 88.899C24.5619 89.7019 24.8087 90.2808 25.3676 90.6355C25.8054 90.9134 26.2693 90.9255 26.7594 90.6717C27.2534 90.4204 27.7075 89.9684 28.1218 89.3157C28.551 88.6395 28.8049 87.9068 28.8835 87.1178C28.9621 86.3287 28.7161 85.7531 28.1454 85.3909Z" fill="#333333"/>
<path d="M31.1779 93.7518C31.588 93.8724 31.878 93.9063 32.0478 93.8534C32.2193 93.7962 32.3725 93.5951 32.5074 93.2502L33.648 90.3333C33.8149 89.9065 33.8928 89.5865 33.8817 89.3734C33.8765 89.1576 33.7684 89.0084 33.5571 88.9258C33.514 88.909 33.4532 88.8927 33.3749 88.877C33.3025 88.8586 33.2242 88.8429 33.1398 88.8298L33.2233 88.6163C33.5027 88.6262 33.7895 88.6365 34.0836 88.6471C34.3777 88.6577 34.582 88.663 34.6963 88.663C34.9439 88.6653 35.2022 88.6595 35.4712 88.6453C35.5014 88.6571 35.5144 88.6747 35.5103 88.6979C35.5105 88.7228 35.4971 88.7698 35.4701 88.8388L35.0554 89.8994C35.4814 89.6236 35.8637 89.4276 36.2024 89.3115C36.5454 89.1971 36.8549 89.1939 37.1308 89.3018C37.3507 89.3877 37.5035 89.5245 37.5892 89.7122C37.6766 89.8955 37.6815 90.0863 37.604 90.2846C37.5349 90.4614 37.4228 90.5891 37.2678 90.6676C37.1171 90.7479 36.962 90.7568 36.8025 90.6945C36.6386 90.6304 36.5021 90.49 36.393 90.2734C36.2882 90.0584 36.1883 89.9324 36.0935 89.8953C35.9425 89.8363 35.7091 89.8866 35.3931 90.0464C35.0788 90.2019 34.8711 90.409 34.7699 90.6677L33.6293 93.5845C33.4843 93.9553 33.4694 94.2477 33.5845 94.4618C33.7014 94.6715 33.962 94.8504 34.3663 94.9986L34.2829 95.212L31.0944 93.9652L31.1779 93.7518Z" fill="#333333"/>
<path d="M45.9861 95.705L46.215 95.7167C46.2942 96.2493 46.4167 96.6612 46.5825 96.9525C46.8795 97.487 47.3401 97.7703 47.9642 97.8024C48.311 97.8203 48.5886 97.7395 48.7972 97.5602C49.0106 97.3765 49.1252 97.132 49.1409 96.8269C49.1509 96.6327 49.1027 96.4425 48.9964 96.2562C48.8901 96.07 48.6957 95.8838 48.4133 95.6977L47.6594 95.2139C47.1064 94.8795 46.7038 94.5505 46.4516 94.227C46.1993 93.9034 46.0841 93.5312 46.1057 93.1105C46.1323 92.5927 46.3392 92.1768 46.7262 91.863C47.1132 91.5491 47.5864 91.4066 48.1458 91.4354C48.3909 91.448 48.6567 91.508 48.9432 91.6155C49.2343 91.7232 49.3984 91.778 49.4354 91.7799C49.5186 91.7842 49.5793 91.7757 49.6175 91.7545C49.6557 91.7333 49.6899 91.6979 49.7203 91.6485L49.8867 91.6571L49.8357 93.5945L49.6207 93.5834C49.5513 93.1302 49.4445 92.7747 49.3001 92.5169C49.0372 92.0398 48.6353 91.7874 48.0944 91.7595C47.7708 91.7429 47.5114 91.8292 47.3162 92.0185C47.121 92.2078 47.0165 92.4365 47.0027 92.7047C46.9808 93.13 47.2804 93.5256 47.9013 93.8913L48.7914 94.4308C49.7486 95.0178 50.2088 95.6673 50.1722 96.3793C50.1441 96.9249 49.9154 97.3605 49.4861 97.686C49.0614 98.0119 48.5185 98.1578 47.8573 98.1237C47.5799 98.1095 47.2679 98.0471 46.9213 97.9365C46.5746 97.826 46.369 97.769 46.3042 97.7657C46.2487 97.7628 46.1991 97.7811 46.1554 97.8206C46.1119 97.8554 46.0771 97.9 46.0511 97.9543L45.8708 97.945L45.9861 95.705Z" fill="#333333"/>
<path d="M54.3291 88.9253C54.3049 88.7277 54.3529 88.5492 54.4733 88.3899C54.5937 88.2305 54.755 88.1384 54.9571 88.1136C55.1547 88.0893 55.3312 88.14 55.4865 88.2655C55.6459 88.3859 55.738 88.5472 55.7628 88.7493C55.787 88.9469 55.7367 89.1257 55.6117 89.2856C55.4908 89.4404 55.3315 89.5299 55.1339 89.5541C54.9317 89.579 54.7533 89.5309 54.5985 89.41C54.4432 89.2844 54.3534 89.1229 54.3291 88.9253ZM54.5152 97.739C55.0012 97.6327 55.3012 97.5119 55.4152 97.3766C55.5287 97.2368 55.5524 96.898 55.4864 96.3604L55.0829 93.0726C55.0463 92.7739 55.0002 92.5697 54.9448 92.4599C54.8527 92.28 54.6964 92.2035 54.4759 92.2306C54.4253 92.2368 54.3753 92.2476 54.3259 92.263C54.2811 92.2778 54.1478 92.3315 53.9259 92.424L53.8997 92.2103L54.1842 92.0775C54.9562 91.7169 55.4926 91.4505 55.7933 91.2783C55.9152 91.2074 55.9945 91.1697 56.0313 91.1652C56.0444 91.1962 56.0532 91.2301 56.0577 91.2669L56.6651 96.2158C56.7293 96.7396 56.8317 97.0606 56.9721 97.1786C57.1171 97.2961 57.4148 97.3458 57.865 97.3279L57.8887 97.5209L54.5389 97.932L54.5152 97.739Z" fill="#333333"/>
<path d="M63.2329 89.6835L63.3693 90.1645L62.0065 90.551L63.0845 94.403C63.1805 94.7415 63.282 94.9894 63.3892 95.1467C63.5833 95.4237 63.8362 95.518 64.1479 95.4296C64.3083 95.3841 64.4356 95.3071 64.5299 95.1985C64.6287 95.0887 64.7305 94.9299 64.8352 94.7222L65.0505 94.8199L64.9604 95.062C64.8172 95.4395 64.6348 95.7294 64.4131 95.9318C64.1914 96.1342 63.9603 96.2696 63.7198 96.3378C63.1942 96.4868 62.7716 96.3541 62.4519 95.9394C62.2775 95.7146 62.1264 95.3773 61.9989 94.9274L60.8507 90.8788L60.1224 91.0854C60.0964 91.0783 60.0748 91.07 60.0576 91.0604C60.0449 91.0496 60.0354 91.0331 60.0291 91.0108C60.0165 90.9662 60.0159 90.9303 60.0274 90.903C60.0421 90.8699 60.0903 90.7937 60.1719 90.6743C60.4072 90.3333 60.5696 90.0659 60.659 89.8721C60.7516 89.6726 60.9535 89.163 61.2648 88.3433C61.3227 88.3269 61.3574 88.3218 61.3688 88.3282C61.3847 88.3333 61.4009 88.3648 61.4173 88.4227L61.8834 90.0662L63.2329 89.6835Z" fill="#333333"/>
<path d="M75.7712 86.1937C75.4301 86.6387 75.176 87.0469 75.0088 87.4184C74.6896 88.1341 74.6771 88.7082 74.9715 89.1407C75.2086 89.4889 75.498 89.6672 75.8396 89.6754C76.0618 89.681 76.2648 89.6212 76.4484 89.4962C76.701 89.3242 76.8939 89.0893 77.0272 88.7914C77.1642 88.4909 77.1585 88.2316 77.01 88.0134L75.7712 86.1937ZM74.2194 90.2324C73.8416 89.6774 73.8038 89.0255 74.106 88.2765C74.3018 87.8072 74.7917 87.0173 75.5758 85.9067L75.2437 85.4187C74.9779 85.0284 74.7547 84.7827 74.5739 84.6817C74.2693 84.5139 73.9122 84.5694 73.5027 84.8481C73.3075 84.981 73.1558 85.1571 73.0475 85.3764C72.9418 85.5996 72.9502 85.8011 73.0726 85.981C73.1039 86.0269 73.1668 86.0988 73.2615 86.1968C73.3536 86.2909 73.4101 86.3533 73.4309 86.3839C73.5768 86.5982 73.6076 86.7957 73.5233 86.9763C73.4768 87.0807 73.3981 87.1707 73.2871 87.2463C73.1149 87.3635 72.9451 87.3979 72.7777 87.3494C72.6077 87.2972 72.4758 87.2021 72.382 87.0644C72.1996 86.7965 72.174 86.4051 72.3051 85.8902C72.4375 85.3689 72.8232 84.8907 73.4623 84.4556C74.2048 83.9502 74.8721 83.8487 75.4645 84.1511C75.7858 84.3188 76.1184 84.6552 76.4623 85.1604L78.0293 87.4623C78.1805 87.6843 78.3 87.8269 78.3879 87.8903C78.5393 88.0057 78.6934 88.01 78.8503 87.9031C78.9383 87.8432 79.0019 87.7803 79.0411 87.7145C79.0802 87.6486 79.1355 87.5158 79.2067 87.3161L79.4099 87.6146C79.3891 87.8472 79.3404 88.0595 79.2639 88.2516C79.1486 88.5429 78.98 88.7641 78.758 88.9152C78.4978 89.0924 78.251 89.1372 78.0178 89.0495C77.7883 88.9593 77.5884 88.8014 77.418 88.5757C77.2991 89.0263 77.178 89.3832 77.0547 89.6463C76.8471 90.0901 76.5864 90.4187 76.2726 90.6324C75.9435 90.8564 75.5802 90.9357 75.1828 90.8702C74.7828 90.8009 74.4617 90.5883 74.2194 90.2324Z" fill="#333333"/>
<path d="M82.6829 85.7051C82.8955 85.4114 83.0081 85.1902 83.0207 85.0417C83.041 84.8139 82.8992 84.5678 82.5953 84.3034L79.8868 81.9467C79.6284 81.7219 79.4286 81.6094 79.2875 81.6094C79.1494 81.6058 79.012 81.6827 78.8753 81.8398C78.8115 81.9132 78.7663 81.9721 78.7399 82.0166C78.7165 82.0576 78.6922 82.1101 78.6672 82.1742L78.4838 82.0147L78.6863 81.5281C78.7594 81.3524 78.8718 81.0574 79.0235 80.6433C79.1752 80.2291 79.2587 80.0133 79.2739 79.9958C79.2891 79.9784 79.3069 79.9755 79.3274 79.9872C79.3479 79.9989 79.3826 80.026 79.4315 80.0686L80.1387 80.6839C80.1253 80.0647 80.1685 79.5776 80.2686 79.2228C80.3652 78.865 80.5289 78.5534 80.7599 78.2879C81.0729 77.9282 81.4443 77.7482 81.8741 77.7478C82.1041 77.7516 82.3645 77.8155 82.6553 77.9397C82.6183 77.4533 82.6204 77.0594 82.6618 76.7579C82.734 76.2377 82.9205 75.8047 83.2213 75.4589C83.7106 74.8966 84.266 74.7202 84.8877 74.9297C85.2403 75.0463 85.6961 75.3477 86.2549 75.834L88.429 77.7256C88.677 77.9414 88.8935 78.0347 89.0785 78.0054C89.2631 77.9696 89.4939 77.8207 89.771 77.5586L89.9072 77.6771L87.8514 80.0398L87.7048 79.9122C87.9412 79.584 88.0533 79.3318 88.041 79.1554C88.0318 78.9756 87.8823 78.7596 87.5924 78.5073L85.3344 76.5427C84.9956 76.2479 84.714 76.0673 84.4895 76.0009C84.0907 75.8809 83.7272 76.0095 83.399 76.3867C83.2015 76.6138 83.0806 76.9044 83.0363 77.2586C83.0111 77.4638 83.0126 77.7442 83.0406 78.1L85.7229 80.4338C86.0058 80.68 86.2631 80.818 86.4949 80.8478C86.7297 80.8741 86.9921 80.7312 87.2822 80.419L87.4184 80.5375L85.3262 82.9422L85.1899 82.8237C85.4367 82.4554 85.5402 82.1742 85.5005 81.9801C85.4608 81.786 85.2086 81.4868 84.7441 81.0826L83.2772 79.8063C82.7394 79.3383 82.3388 79.0511 82.0754 78.9447C81.6329 78.7622 81.249 78.8578 80.9238 79.2315C80.7385 79.4445 80.6155 79.7057 80.555 80.0151C80.4909 80.3215 80.4848 80.6353 80.5367 80.9565L83.4024 83.4499C83.6678 83.6809 83.8907 83.795 84.071 83.7923C84.2543 83.7862 84.483 83.6292 84.7569 83.3214L84.8931 83.4399L82.8191 85.8236L82.6829 85.7051Z" fill="#333333"/>
<path d="M87.2705 68.733C87.5597 68.1478 88.0164 67.7357 88.6405 67.4968C89.2605 67.2558 89.942 67.3189 90.6849 67.686L88.7313 71.6393C89.7148 72.0736 90.5239 72.2024 91.1587 72.0255C91.7934 71.8486 92.2442 71.4904 92.5108 70.9508C92.7262 70.515 92.7935 70.0913 92.7129 69.6797C92.6323 69.268 92.445 68.832 92.1509 68.3717L92.3333 68.1907C92.7763 68.6214 93.1061 69.1819 93.3225 69.8725C93.5411 70.5588 93.4832 71.2403 93.1489 71.9168C92.7633 72.6971 92.1702 73.1553 91.3695 73.2916C90.571 73.4237 89.7878 73.3 89.0199 72.9206C88.1857 72.5083 87.5876 71.9055 87.2257 71.1122C86.8638 70.3188 86.8788 69.5258 87.2705 68.733ZM87.5466 69.3187C87.3127 69.7919 87.3439 70.2565 87.64 70.7127C87.7985 70.9563 88.0336 71.1912 88.3452 71.4175L89.6435 68.7903C89.2059 68.6308 88.8577 68.5569 88.599 68.5684C88.1332 68.5913 87.7824 68.8414 87.5466 69.3187Z" fill="#333333"/>
<path d="M90.4597 60.4095L90.9404 60.5472L90.5502 61.9091L94.3916 63.0241C94.7299 63.121 94.9941 63.1654 95.1842 63.1572C95.5219 63.1384 95.7354 62.9732 95.8246 62.6617C95.8705 62.5015 95.8722 62.3527 95.8297 62.2153C95.7885 62.0734 95.7072 61.9033 95.5859 61.7048L95.7825 61.5733L95.9407 61.7775C96.1859 62.0982 96.3361 62.4061 96.3912 62.7012C96.4463 62.9963 96.4394 63.264 96.3706 63.5044C96.2201 64.0295 95.8845 64.3186 95.3636 64.3717C95.0806 64.4013 94.7143 64.3518 94.2648 64.223L90.2193 63.064L90.0108 63.7916C89.9911 63.8101 89.9727 63.824 89.9555 63.8336C89.9396 63.8387 89.9205 63.838 89.8983 63.8316C89.8538 63.8189 89.8229 63.8004 89.8058 63.7762C89.7854 63.7463 89.7461 63.6652 89.6877 63.5329C89.522 63.1531 89.3804 62.8742 89.2628 62.696C89.1421 62.5122 88.8156 62.0719 88.2832 61.3752C88.2998 61.3173 88.3138 61.2852 88.3252 61.2789C88.338 61.2681 88.3733 61.2709 88.4311 61.2875L90.0734 61.758L90.4597 60.4095Z" fill="#333333"/>
<path d="M97.6968 55.0787C98.1604 55.1399 98.5697 55.3644 98.9248 55.7521C99.2799 56.1399 99.5192 56.538 99.6428 56.9466L99.3501 57.041C99.1604 56.5677 98.9319 56.2293 98.6645 56.026C98.3978 55.818 98.168 55.7013 97.9753 55.6758C97.911 55.6673 97.867 55.6825 97.8432 55.7214C97.8194 55.7603 97.8044 55.8027 97.7984 55.8486L97.7857 56.3162C97.7603 56.509 97.675 56.6775 97.5298 56.8218C97.3801 56.9655 97.1859 57.0216 96.9473 56.9901C96.7637 56.9659 96.5935 56.8757 96.4366 56.7196C96.2798 56.5635 96.2213 56.3339 96.2613 56.031C96.2995 55.7419 96.4484 55.4977 96.7082 55.2985C96.9634 55.0987 97.2929 55.0254 97.6968 55.0787Z" fill="#333333"/>
<path d="M90.7383 42.8291C90.6325 42.2602 90.6896 41.7434 90.9093 41.2788C91.1237 40.8104 91.4061 40.5437 91.7566 40.4786C91.9068 40.4507 92.0576 40.4768 92.209 40.557C92.3559 40.638 92.4497 40.7877 92.4903 41.0062C92.5199 41.1655 92.4915 41.3168 92.4051 41.46C92.3178 41.5986 92.1746 41.7147 91.9753 41.8082L91.6628 41.951C91.4326 42.055 91.2809 42.1891 91.2079 42.3534C91.1402 42.5214 91.1292 42.7282 91.1748 42.974C91.2713 43.4929 91.5804 43.8899 92.1024 44.1649C92.619 44.4362 93.2528 44.5021 94.0038 44.3625C94.6911 44.2348 95.2715 43.9245 95.745 43.4316C96.2176 42.9341 96.3918 42.3508 96.2675 41.6817C96.1795 41.2084 95.9465 40.8161 95.5685 40.5049C95.3521 40.3285 95.0259 40.1443 94.59 39.9521L94.6705 39.7394C95.2649 39.8974 95.7481 40.0901 96.12 40.3177C96.8322 40.7551 97.2556 41.3357 97.39 42.0594C97.522 42.7695 97.3587 43.4496 96.9004 44.0998C96.442 44.7501 95.7326 45.1644 94.7722 45.3428C93.83 45.5179 92.9644 45.3703 92.1754 44.9C91.3865 44.4298 90.9074 43.7395 90.7383 42.8291Z" fill="#333333"/>
<path d="M92.6132 36.4599C91.7631 36.8151 90.933 36.8458 90.1229 36.5521C89.3068 36.2559 88.7211 35.6828 88.3659 34.8327C88.0125 33.987 87.9974 33.1704 88.3207 32.383C88.644 31.5957 89.267 31.0093 90.1897 30.6237C91.0398 30.2685 91.8912 30.2289 92.744 30.5047C93.5969 30.7806 94.2017 31.3457 94.5587 32.2C94.9014 33.0202 94.8903 33.8402 94.5254 34.66C94.1605 35.4798 93.5231 36.0797 92.6132 36.4599ZM88.8253 34.8515C88.9663 35.189 89.1996 35.4352 89.5253 35.5901C90.0925 35.8549 90.8524 35.7882 91.805 35.3902C92.5653 35.0725 93.203 34.6054 93.7181 33.9888C94.2314 33.3679 94.3604 32.752 94.1051 32.1412C93.9052 31.6628 93.5317 31.3873 92.9847 31.3148C92.4358 31.2381 91.8047 31.3488 91.0913 31.6469C90.3523 31.9556 89.7248 32.411 89.2086 33.013C88.6925 33.615 88.5647 34.2279 88.8253 34.8515Z" fill="#333333"/>
<path d="M91.0869 26.0143C90.8634 25.7697 90.6651 25.6291 90.492 25.5926C90.3125 25.5549 90.0487 25.6588 89.7006 25.9043L86.8235 27.9336C86.5814 28.1044 86.4271 28.2472 86.3608 28.362C86.2677 28.5352 86.2999 28.7335 86.4574 28.9567C86.4814 28.9908 86.5086 29.0254 86.5391 29.0605C86.5669 29.0919 86.6032 29.1314 86.6482 29.179L86.4495 29.3191C86.2947 29.196 85.9186 28.9118 85.3212 28.4664L84.769 28.057C84.7504 28.0305 84.7491 28.0087 84.7654 27.9916C84.779 27.9707 84.8028 27.9482 84.8368 27.9242L85.671 27.3358C85.1002 27.2173 84.6849 27.1023 84.425 26.991C84.0315 26.8266 83.7227 26.5856 83.4985 26.2678C83.3171 26.0105 83.2254 25.7239 83.2235 25.408C83.2229 24.7966 83.5914 24.2308 84.3291 23.7104L86.9793 21.8412C87.2516 21.6491 87.4097 21.4555 87.4534 21.2604C87.497 21.0653 87.43 20.8378 87.2524 20.5778L87.4113 20.4658L89.1204 22.8889L88.9615 23.001C88.7289 22.7515 88.5171 22.6119 88.3262 22.5823C88.1316 22.5553 87.8413 22.6779 87.4554 22.95L85.0323 24.6591C84.7069 24.8886 84.481 25.1386 84.3545 25.4091C84.2243 25.6823 84.2739 25.9815 84.5034 26.3069C84.6608 26.5301 84.8966 26.7037 85.2107 26.8277C85.3884 26.895 85.6496 26.9601 85.9942 27.0229L89.1721 24.7815C89.4445 24.5894 89.5853 24.3994 89.5945 24.2116C89.5999 24.0265 89.5143 23.8008 89.3377 23.5344L89.4966 23.4223L91.2458 25.9022L91.0869 26.0143Z" fill="#333333"/>
<path d="M83.0731 18.9773L82.9056 18.821C83.1878 18.3625 83.3593 17.9684 83.4199 17.6387C83.5368 17.0385 83.3667 16.5252 82.9098 16.0988C82.6559 15.8619 82.3915 15.745 82.1164 15.7479C81.8348 15.7511 81.5898 15.8644 81.3813 16.0878C81.2487 16.23 81.1631 16.4065 81.1245 16.6175C81.0859 16.8285 81.1148 17.0961 81.2112 17.4203L81.4766 18.2758C81.6845 18.8877 81.7808 19.3987 81.7654 19.8087C81.7501 20.2186 81.5988 20.5776 81.3113 20.8856C80.9576 21.2647 80.5316 21.4498 80.0334 21.4408C79.5352 21.4318 79.0813 21.2362 78.6718 20.854C78.4924 20.6866 78.3277 20.4696 78.1776 20.2029C78.0242 19.9331 77.9339 19.7855 77.9068 19.7602C77.8459 19.7034 77.794 19.6708 77.7511 19.6624C77.7082 19.6541 77.6593 19.6591 77.6042 19.6773L77.4824 19.5636L78.7687 18.114L78.9261 18.2608C78.6874 18.6523 78.5403 18.9931 78.4848 19.2833C78.3788 19.8176 78.5238 20.2695 78.9199 20.6391C79.1568 20.8602 79.4109 20.9611 79.6821 20.9419C79.9533 20.9227 80.1805 20.815 80.3637 20.6187C80.6543 20.3073 80.6797 19.8118 80.44 19.1322L80.1062 18.1463C79.7517 17.0809 79.8176 16.2876 80.304 15.7664C80.6768 15.367 81.1322 15.1809 81.6703 15.2081C82.2051 15.2322 82.7144 15.4701 83.1985 15.9218C83.4015 16.1113 83.6001 16.3599 83.7942 16.6677C83.9883 16.9754 84.109 17.1514 84.1564 17.1956C84.197 17.2335 84.2467 17.2515 84.3056 17.2494C84.3614 17.2508 84.4166 17.2391 84.4715 17.2142L84.6035 17.3374L83.0731 18.9773Z" fill="#333333"/>
<path d="M26.8531 9.6173C26.5153 9.87936 26.3182 10.0947 26.2618 10.2634C26.2078 10.4359 26.2813 10.6778 26.4821 10.989L28.1802 13.6206C28.4287 14.0057 28.6426 14.2561 28.822 14.3718C28.9999 14.4939 29.1842 14.4934 29.3748 14.3704C29.4137 14.3453 29.4625 14.3056 29.5211 14.2512C29.5783 14.2033 29.6369 14.149 29.6969 14.0882L29.8211 14.2808C29.6496 14.5016 29.4735 14.7282 29.2928 14.9605C29.1121 15.1928 28.9883 15.3554 28.9215 15.4481C28.7747 15.6475 28.6283 15.8604 28.4824 16.0868C28.4551 16.1044 28.4333 16.1047 28.4169 16.0878C28.3965 16.0733 28.3663 16.035 28.3261 15.9728L27.7086 15.0158C27.6831 15.5227 27.6183 15.9474 27.5143 16.29C27.4064 16.6351 27.228 16.888 26.979 17.0487C26.7806 17.1767 26.5803 17.2206 26.378 17.1803C26.1782 17.1439 26.0206 17.0363 25.9051 16.8573C25.8022 16.6978 25.7642 16.5323 25.7912 16.3606C25.8143 16.1914 25.8978 16.0604 26.0417 15.9675C26.1895 15.8721 26.3832 15.8436 26.6228 15.8818C26.8584 15.9226 27.0191 15.9154 27.1046 15.8601C27.2408 15.7723 27.3365 15.5535 27.3918 15.2037C27.4497 14.8579 27.4033 14.5682 27.2526 14.3348L25.5545 11.7033C25.3386 11.3687 25.1102 11.1855 24.8693 11.1537C24.6308 11.1257 24.3332 11.2324 23.9765 11.4736L23.8522 11.281L26.7289 9.42475L26.8531 9.6173Z" fill="#333333"/>
<path d="M51.5548 37.928C45.0364 37.928 39.7031 43.2612 39.7031 49.7797C39.7031 56.2981 45.0364 61.6314 51.5548 61.6314C58.0733 61.6314 63.4065 56.2981 63.4065 49.7797C63.4065 43.2612 58.0733 37.928 51.5548 37.928ZM56.5325 54.7574L50.3697 50.9648V43.8538H52.1474V50.0167L57.4807 53.2167L56.5325 54.7574Z" fill="black"/>
</svg>
